<svg width="41" height="41" viewBox="0 0 41 41" fill="none" xmlns="http://www.w3.org/2000/svg">
<g clip-path="url(#clip0_1545_16064)">
<path d="M3.69125 20.3675C3.8988 20.4713 4.13116 20.5153 4.36231 20.4946C4.59346 20.4738 4.81426 20.3891 5 20.25L9.25 17.0625L13 19.875V39.25C13.0051 39.4739 13.0696 39.6925 13.1869 39.8834C13.3042 40.0742 13.47 40.2305 13.6675 40.3362C13.8661 40.4395 14.088 40.4895 14.3117 40.4814C14.5354 40.4733 14.7532 40.4073 14.9438 40.29L18 38.25L21.0562 40.2887C21.2617 40.4258 21.5031 40.4989 21.75 40.4989C21.9969 40.4989 22.2383 40.4258 22.4438 40.2887L25.5 38.25L28.5562 40.2887C28.7573 40.4227 28.9929 40.4956 29.2345 40.4984C29.4761 40.5013 29.7133 40.4341 29.9175 40.305L33 38.3538L36.075 40.305C36.2524 40.4138 36.4539 40.4773 36.6616 40.4899C36.8693 40.5025 37.0769 40.4639 37.2663 40.3775C37.4807 40.2756 37.6628 40.1163 37.7923 39.9173C37.9218 39.7183 37.9937 39.4873 38 39.25V6.75C37.998 5.09301 37.3389 3.50445 36.1672 2.33277C34.9956 1.1611 33.407 0.501985 31.75 0.5L9.25 0.5C7.59301 0.501985 6.00445 1.1611 4.83277 2.33277C3.6611 3.50445 3.00198 5.09301 3 6.75V19.25C3.00012 19.4821 3.06485 19.7095 3.18694 19.9069C3.30903 20.1043 3.48365 20.2638 3.69125 20.3675V20.3675ZM35.5 6.75V36.9762L33.6763 35.82C33.4762 35.6933 33.2443 35.6261 33.0075 35.6261C32.7707 35.6261 32.5388 35.6933 32.3388 35.82L29.2687 37.76L26.1938 35.7113C25.9883 35.5742 25.7469 35.5011 25.5 35.5011C25.2531 35.5011 25.0117 35.5742 24.8062 35.7113L21.75 37.75L18.6938 35.7125C18.4883 35.5755 18.2469 35.5023 18 35.5023C17.7531 35.5023 17.5117 35.5755 17.3062 35.7125L15.5 36.9138V6.75C15.4954 5.39316 15.0448 4.07549 14.2175 3H31.75C32.7446 3 33.6984 3.39509 34.4017 4.09835C35.1049 4.80161 35.5 5.75544 35.5 6.75V6.75ZM5.5 6.75C5.5 5.75544 5.89509 4.80161 6.59835 4.09835C7.30161 3.39509 8.25544 3 9.25 3C10.2446 3 11.1984 3.39509 11.9017 4.09835C12.6049 4.80161 13 5.75544 13 6.75V16.75L10 14.5C9.78139 14.3431 9.51908 14.2587 9.25 14.2587C8.98092 14.2587 8.71861 14.3431 8.5 14.5L5.5 16.75V6.75Z" fill="#48596C"/>
<path d="M19.25 25.5H31.75C32.0815 25.5 32.3995 25.3683 32.6339 25.1339C32.8683 24.8995 33 24.5815 33 24.25C33 23.9185 32.8683 23.6005 32.6339 23.3661C32.3995 23.1317 32.0815 23 31.75 23H19.25C18.9185 23 18.6005 23.1317 18.3661 23.3661C18.1317 23.6005 18 23.9185 18 24.25C18 24.5815 18.1317 24.8995 18.3661 25.1339C18.6005 25.3683 18.9185 25.5 19.25 25.5V25.5Z" fill="#48596C"/>
<path d="M19.25 31.75H25.5C25.8315 31.75 26.1495 31.6183 26.3839 31.3839C26.6183 31.1495 26.75 30.8315 26.75 30.5C26.75 30.1685 26.6183 29.8505 26.3839 29.6161C26.1495 29.3817 25.8315 29.25 25.5 29.25H19.25C18.9185 29.25 18.6005 29.3817 18.3661 29.6161C18.1317 29.8505 18 30.1685 18 30.5C18 30.8315 18.1317 31.1495 18.3661 31.3839C18.6005 31.6183 18.9185 31.75 19.25 31.75V31.75Z" fill="#48596C"/>
<path d="M24.25 15.5C23.9185 15.5 23.6005 15.6317 23.3661 15.8661C23.1317 16.1005 23 16.4185 23 16.75C23 17.0815 23.1317 17.3995 23.3661 17.6339C23.6005 17.8683 23.9185 18 24.25 18C24.25 18.3315 24.3817 18.6495 24.6161 18.8839C24.8505 19.1183 25.1685 19.25 25.5 19.25C25.8315 19.25 26.1495 19.1183 26.3839 18.8839C26.6183 18.6495 26.75 18.3315 26.75 18V17.6525C27.1288 17.4348 27.4437 17.1214 27.6631 16.7436C27.8825 16.3657 27.9987 15.9369 28 15.5V14.25C28 13.587 27.7366 12.9511 27.2678 12.4822C26.7989 12.0134 26.163 11.75 25.5 11.75V10.5H26.75C27.0815 10.5 27.3995 10.3683 27.6339 10.1339C27.8683 9.89946 28 9.58152 28 9.25C28 8.91848 27.8683 8.60054 27.6339 8.36612C27.3995 8.1317 27.0815 8 26.75 8C26.75 7.66848 26.6183 7.35054 26.3839 7.11612C26.1495 6.8817 25.8315 6.75 25.5 6.75C25.1685 6.75 24.8505 6.8817 24.6161 7.11612C24.3817 7.35054 24.25 7.66848 24.25 8V8.3475C23.8712 8.56518 23.5563 8.87864 23.3369 9.25645C23.1175 9.63425 23.0013 10.0631 23 10.5V11.75C23 12.413 23.2634 13.0489 23.7322 13.5178C24.2011 13.9866 24.837 14.25 25.5 14.25V15.5H24.25Z" fill="#48596C"/>
</g>
<defs>
<clipPath id="clip0_1545_16064">
<rect width="40" height="40" fill="white" transform="translate(0.5 0.5)"/>
</clipPath>
</defs>
</svg>
