<svg width="21" height="33" viewBox="0 0 21 33" fill="none" xmlns="http://www.w3.org/2000/svg">
<path d="M17.4609 2.52344C15.3125 0.890625 12.8906 0.328125 9.82031 0.328125C7.49219 0.328125 5.5 0.804687 3.92188 1.86719C1.59375 3.45312 0.5 6.11719 0.5 10.3281H6.5C6.5 9.20312 6.39063 7.99219 7.04688 6.95312C7.70312 5.91406 8.61719 5.11719 10.1875 5.11719C11.7812 5.11719 12.6016 5.57812 13.375 6.53125C14.0312 7.34375 14.2812 8.3125 14.2812 9.34375C14.2812 10.2344 13.8281 11.0547 13.2891 11.7969C12.9922 12.2344 12.6016 12.625 12.1094 13C12.1094 13 8.86719 14.9297 7.72656 16.7578C6.875 18.1172 6.57031 19.8203 6.5 21.8594C6.49219 22.0078 6.54688 22.3125 7.0625 22.3125H11.8906C12.3437 22.3125 12.4375 21.9688 12.4453 21.8281C12.4766 21.0859 12.5703 19.9453 12.7031 19.5156C12.9609 18.7031 13.4609 17.9922 14.2422 17.3828L15.8594 16.2656C17.3203 15.125 18.4844 14.1953 19 13.4609C19.8828 12.2578 20.5 10.7734 20.5 9.01562C20.5 6.14844 19.4453 4.03125 17.4609 2.52344ZM9.40625 25.4219C7.38281 25.3594 5.71094 26.7656 5.64062 28.9609C5.57812 31.1641 7.16406 32.6094 9.19531 32.6719C11.3047 32.7344 12.9375 31.375 13 29.1797C13.0625 26.9844 11.5156 25.4844 9.40625 25.4219Z" fill="#48596C"/>
</svg>
