<svg width="41" height="41" viewBox="0 0 41 41" fill="none" xmlns="http://www.w3.org/2000/svg">
<path d="M8 3C5.25162 3 3 5.25162 3 8V33C3 35.7484 5.25162 38 8 38H20.5C20.8315 38 21.1495 37.8683 21.3839 37.6339C21.6183 37.3995 21.75 37.0815 21.75 36.75C21.75 36.4185 21.6183 36.1005 21.3839 35.8661C21.1495 35.6317 20.8315 35.5 20.5 35.5H8C6.59338 35.5 5.5 34.4066 5.5 33V8C5.5 6.59338 6.59338 5.5 8 5.5H25.5C26.9066 5.5 28 6.59338 28 8V10.5C28 10.8315 28.1317 11.1495 28.3661 11.3839C28.6005 11.6183 28.9185 11.75 29.25 11.75C29.5815 11.75 29.8995 11.6183 30.1339 11.3839C30.3683 11.1495 30.5 10.8315 30.5 10.5V8C30.5 5.25162 28.2484 3 25.5 3H8Z" fill="#48596C"/>
<path d="M29.25 13C24.4323 13 20.5 16.9323 20.5 21.75C20.5 24.7161 21.9946 27.3414 24.2646 28.9253V36.75C24.2648 36.9764 24.3265 37.1985 24.4431 37.3926C24.5597 37.5867 24.7268 37.7455 24.9266 37.852C25.1263 37.9585 25.3513 38.0088 25.5774 37.9975C25.8035 37.9861 26.0223 37.9136 26.2104 37.7876L29.25 35.7539L32.2896 37.7876C32.4777 37.9136 32.6965 37.9861 32.9226 37.9975C33.1487 38.0088 33.3737 37.9585 33.5735 37.852C33.7732 37.7455 33.9403 37.5867 34.0569 37.3926C34.1735 37.1985 34.2352 36.9764 34.2354 36.75V28.9253C36.5054 27.3414 38 24.7161 38 21.75C38 16.9323 34.0677 13 29.25 13ZM29.25 15.5C32.7166 15.5 35.5 18.2834 35.5 21.75C35.5 25.2166 32.7166 28 29.25 28C25.7834 28 23 25.2166 23 21.75C23 18.2834 25.7834 15.5 29.25 15.5ZM26.7646 30.1338C27.5533 30.3686 28.3871 30.5 29.25 30.5C30.1129 30.5 30.9467 30.3686 31.7354 30.1338V34.4111L29.9458 33.2124C29.74 33.0745 29.4978 33.0009 29.25 33.0009C29.0022 33.0009 28.76 33.0745 28.5542 33.2124L26.7646 34.4111V30.1338Z" fill="#48596C"/>
<path d="M10.5 9.25C10.1685 9.25 9.85054 9.3817 9.61612 9.61612C9.3817 9.85054 9.25 10.1685 9.25 10.5C9.25 10.8315 9.3817 11.1495 9.61612 11.3839C9.85054 11.6183 10.1685 11.75 10.5 11.75H14.25C14.5815 11.75 14.8995 11.6183 15.1339 11.3839C15.3683 11.1495 15.5 10.8315 15.5 10.5C15.5 10.1685 15.3683 9.85054 15.1339 9.61612C14.8995 9.3817 14.5815 9.25 14.25 9.25H10.5ZM10.5 14.25C10.1685 14.25 9.85054 14.3817 9.61612 14.6161C9.3817 14.8505 9.25 15.1685 9.25 15.5C9.25 15.8315 9.3817 16.1495 9.61612 16.3839C9.85054 16.6183 10.1685 16.75 10.5 16.75H18C18.3315 16.75 18.6495 16.6183 18.8839 16.3839C19.1183 16.1495 19.25 15.8315 19.25 15.5C19.25 15.1685 19.1183 14.8505 18.8839 14.6161C18.6495 14.3817 18.3315 14.25 18 14.25H10.5ZM10.5 19.25C10.1685 19.25 9.85054 19.3817 9.61612 19.6161C9.3817 19.8505 9.25 20.1685 9.25 20.5C9.25 20.8315 9.3817 21.1495 9.61612 21.3839C9.85054 21.6183 10.1685 21.75 10.5 21.75H14.25C14.5815 21.75 14.8995 21.6183 15.1339 21.3839C15.3683 21.1495 15.5 20.8315 15.5 20.5C15.5 20.1685 15.3683 19.8505 15.1339 19.6161C14.8995 19.3817 14.5815 19.25 14.25 19.25H10.5Z" fill="#48596C"/>
</svg>
