<svg width="41" height="41" viewBox="0 0 41 41" fill="none" xmlns="http://www.w3.org/2000/svg">
<path d="M20.5 15.5C17.7386 15.5 15.5 17.7386 15.5 20.5C15.5 23.2614 17.7386 25.5 20.5 25.5C23.2614 25.5 25.5 23.2614 25.5 20.5C25.5 17.7386 23.2614 15.5 20.5 15.5ZM18 20.5C18 19.1193 19.1193 18 20.5 18C21.8807 18 23 19.1193 23 20.5C23 21.8807 21.8807 23 20.5 23C19.1193 23 18 21.8807 18 20.5Z" fill="#48596C"/>
<path d="M27.045 11.4958C26.0825 11.6706 25.1598 11.0353 24.9843 10.0769L24.3349 6.53741C24.2704 6.18568 23.999 5.90753 23.6478 5.83313C22.6205 5.61553 21.5671 5.50488 20.5 5.50488C19.4322 5.50488 18.3783 5.61568 17.3503 5.83353C16.999 5.90801 16.7276 6.18631 16.6632 6.53818L16.0157 10.077C15.9985 10.1711 15.9736 10.2638 15.9412 10.354C15.6119 11.2715 14.598 11.7495 13.6766 11.4216L10.2779 10.2116C9.94008 10.0913 9.56278 10.1858 9.32228 10.4508C7.90013 12.0182 6.8223 13.8677 6.168 15.8826C6.05763 16.2225 6.16405 16.5951 6.43755 16.8263L9.19235 19.1552C9.26565 19.2171 9.3338 19.285 9.39608 19.358C10.0294 20.1007 9.9382 21.214 9.19233 21.8446L6.43755 24.1734C6.16405 24.4046 6.05763 24.7772 6.168 25.1171C6.8223 27.132 7.90013 28.9815 9.32228 30.549C9.56278 30.814 9.94008 30.9085 10.2779 30.7883L13.6767 29.578C13.7672 29.546 13.8603 29.521 13.9549 29.5038C14.9175 29.329 15.8402 29.9643 16.0158 30.9228L16.6632 34.4615C16.7276 34.8135 16.999 35.0918 17.3503 35.1663C18.3783 35.384 19.4322 35.4948 20.5 35.4948C21.5671 35.4948 22.6205 35.3843 23.6478 35.1665C23.999 35.0923 24.2704 34.814 24.3349 34.4623L24.9842 30.923C25.0015 30.8285 25.0265 30.736 25.0588 30.6458C25.3881 29.7283 26.402 29.2503 27.3235 29.578L30.722 30.7883C31.06 30.9085 31.4373 30.814 31.6778 30.549C33.1 28.9815 34.1778 27.132 34.832 25.1171C34.9425 24.7772 34.836 24.4046 34.5625 24.1734L31.8078 21.8446C31.7343 21.7826 31.6663 21.7147 31.604 21.6417C30.9705 20.899 31.0618 19.7857 31.8078 19.1551L34.5625 16.8263C34.836 16.5951 34.9425 16.2225 34.832 15.8826C34.1778 13.8677 33.1 12.0182 31.6778 10.4508C31.4373 10.1858 31.06 10.0913 30.722 10.2116L27.3233 11.4216C27.2328 11.4538 27.1398 11.4787 27.045 11.4958ZM10.4966 12.9432L12.8381 13.7768C15.0504 14.564 17.4968 13.4204 18.2942 11.1985C18.3726 10.9802 18.4331 10.7553 18.4749 10.527L18.9185 8.10283C19.4393 8.03781 19.9671 8.00488 20.5 8.00488C21.0325 8.00488 21.5599 8.03776 22.0804 8.10268L22.5253 10.5279C22.9513 12.852 25.1817 14.3751 27.4918 13.9556C27.7193 13.9143 27.9438 13.8544 28.1618 13.7768L30.5035 12.9432C31.141 13.7771 31.671 14.6869 32.0798 15.6516L30.1935 17.246C28.3915 18.7697 28.1688 21.4662 29.7018 23.2639C29.852 23.4402 30.0168 23.6042 30.1938 23.7538L32.0798 25.3481C31.671 26.3128 31.141 27.2225 30.5035 28.0565L28.1615 27.2228C25.9493 26.4355 23.5032 27.5793 22.7058 29.8013C22.6274 30.0195 22.5669 30.2445 22.5251 30.4728L22.0804 32.897C21.5599 32.962 21.0325 32.9948 20.5 32.9948C19.9671 32.9948 19.4393 32.962 18.9185 32.8968L18.4749 30.4725C18.0491 28.148 15.8186 26.6245 13.5083 27.044C13.2807 27.0855 13.0563 27.1453 12.8382 27.223L10.4966 28.0565C9.85893 27.2225 9.32903 26.3128 8.92035 25.3481L10.8064 23.7537C12.6086 22.23 12.8314 19.5335 11.2983 17.7358C11.1479 17.5595 10.9833 17.3956 10.8064 17.246L8.92035 15.6516C9.32903 14.6869 9.85893 13.7771 10.4966 12.9432Z" fill="#48596C"/>
</svg>
